<svg width="112" height="116" viewBox="0 0 112 116" fill="none" xmlns="http://www.w3.org/2000/svg">
<circle cx="2" cy="2" r="2" fill="#DDDDDD"/>
<circle cx="38" cy="2" r="2" fill="#DDDDDD"/>
<circle cx="74" cy="2" r="2" fill="#DDDDDD"/>
<circle cx="110" cy="2" r="2" fill="#DDDDDD"/>
<circle cx="2" cy="30" r="2" fill="#DDDDDD"/>
<circle cx="38" cy="30" r="2" fill="#DDDDDD"/>
<circle cx="74" cy="30" r="2" fill="#DDDDDD"/>
<circle cx="110" cy="30" r="2" fill="#DDDDDD"/>
<circle cx="2" cy="58" r="2" fill="#DDDDDD"/>
<circle cx="38" cy="58" r="2" fill="#DDDDDD"/>
<circle cx="74" cy="58" r="2" fill="#DDDDDD"/>
<circle cx="110" cy="58" r="2" fill="#DDDDDD"/>
<circle cx="2" cy="86" r="2" fill="#DDDDDD"/>
<circle cx="38" cy="86" r="2" fill="#DDDDDD"/>
<circle cx="74" cy="86" r="2" fill="#DDDDDD"/>
<circle cx="110" cy="86" r="2" fill="#DDDDDD"/>
<circle cx="2" cy="114" r="2" fill="#DDDDDD"/>
<circle cx="38" cy="114" r="2" fill="#DDDDDD"/>
<circle cx="74" cy="114" r="2" fill="#DDDDDD"/>
<circle cx="110" cy="114" r="2" fill="#DDDDDD"/>
</svg>
