<svg id="visual" viewBox="0 0 900 600" width="900" height="600" xmlns="http://www.w3.org/2000/svg" xmlns:xlink="http://www.w3.org/1999/xlink" version="1.1"><path d="M296 0L258 0L258 55L253 55L253 109L289 109L289 164L255 164L255 218L297 218L297 273L260 273L260 327L218 327L218 382L276 382L276 436L228 436L228 491L289 491L289 545L278 545L278 600L0 600L0 545L0 545L0 491L0 491L0 436L0 436L0 382L0 382L0 327L0 327L0 273L0 273L0 218L0 218L0 164L0 164L0 109L0 109L0 55L0 55L0 0L0 0Z" fill="#9900ff"></path><path d="M146 0L145 0L145 55L147 55L147 109L116 109L116 164L209 164L209 218L139 218L139 273L124 273L124 327L176 327L176 382L142 382L142 436L210 436L210 491L161 491L161 545L138 545L138 600L0 600L0 545L0 545L0 491L0 491L0 436L0 436L0 382L0 382L0 327L0 327L0 273L0 273L0 218L0 218L0 164L0 164L0 109L0 109L0 55L0 55L0 0L0 0Z" fill="#7700c6"></path><path d="M104 0L134 0L134 55L77 55L77 109L68 109L68 164L122 164L122 218L84 218L84 273L83 273L83 327L49 327L49 382L105 382L105 436L87 436L87 491L84 491L84 545L133 545L133 600L0 600L0 545L0 545L0 491L0 491L0 436L0 436L0 382L0 382L0 327L0 327L0 273L0 273L0 218L0 218L0 164L0 164L0 109L0 109L0 55L0 55L0 0L0 0Z" fill="#560090"></path></svg>