<svg id="visual" viewBox="0 0 900 600" width="900" height="600" xmlns="http://www.w3.org/2000/svg" xmlns:xlink="http://www.w3.org/1999/xlink" version="1.1"><path d="M627 600L608 600L608 545L714 545L714 491L644 491L644 436L711 436L711 382L624 382L624 327L608 327L608 273L679 273L679 218L648 218L648 164L646 164L646 109L657 109L657 55L637 55L637 0L900 0L900 55L900 55L900 109L900 109L900 164L900 164L900 218L900 218L900 273L900 273L900 327L900 327L900 382L900 382L900 436L900 436L900 491L900 491L900 545L900 545L900 600L900 600Z" fill="#9900ff"></path><path d="M735 600L741 600L741 545L706 545L706 491L734 491L734 436L701 436L701 382L705 382L705 327L755 327L755 273L739 273L739 218L784 218L784 164L707 164L707 109L726 109L726 55L774 55L774 0L900 0L900 55L900 55L900 109L900 109L900 164L900 164L900 218L900 218L900 273L900 273L900 327L900 327L900 382L900 382L900 436L900 436L900 491L900 491L900 545L900 545L900 600L900 600Z" fill="#7700c6"></path><path d="M783 600L779 600L779 545L813 545L813 491L769 491L769 436L848 436L848 382L821 382L821 327L834 327L834 273L781 273L781 218L796 218L796 164L787 164L787 109L815 109L815 55L843 55L843 0L900 0L900 55L900 55L900 109L900 109L900 164L900 164L900 218L900 218L900 273L900 273L900 327L900 327L900 382L900 382L900 436L900 436L900 491L900 491L900 545L900 545L900 600L900 600Z" fill="#560090"></path></svg>