<svg id="visual" viewBox="0 0 900 600" width="900" height="600" xmlns="http://www.w3.org/2000/svg" xmlns:xlink="http://www.w3.org/1999/xlink" version="1.1"><path d="M0 402L82 402L82 428L164 428L164 431L245 431L245 407L327 407L327 429L409 429L409 401L491 401L491 426L573 426L573 454L655 454L655 416L736 416L736 448L818 448L818 407L900 407L900 414L900 601L900 601L818 601L818 601L736 601L736 601L655 601L655 601L573 601L573 601L491 601L491 601L409 601L409 601L327 601L327 601L245 601L245 601L164 601L164 601L82 601L82 601L0 601Z" fill="#9900ff"></path><path d="M0 503L82 503L82 503L164 503L164 501L245 501L245 522L327 522L327 460L409 460L409 507L491 507L491 517L573 517L573 483L655 483L655 505L736 505L736 460L818 460L818 492L900 492L900 508L900 601L900 601L818 601L818 601L736 601L736 601L655 601L655 601L573 601L573 601L491 601L491 601L409 601L409 601L327 601L327 601L245 601L245 601L164 601L164 601L82 601L82 601L0 601Z" fill="#7700c6"></path><path d="M0 530L82 530L82 511L164 511L164 548L245 548L245 554L327 554L327 518L409 518L409 544L491 544L491 544L573 544L573 567L655 567L655 530L736 530L736 542L818 542L818 544L900 544L900 511L900 601L900 601L818 601L818 601L736 601L736 601L655 601L655 601L573 601L573 601L491 601L491 601L409 601L409 601L327 601L327 601L245 601L245 601L164 601L164 601L82 601L82 601L0 601Z" fill="#560090"></path></svg>