<svg width="32" height="32" viewBox="0 0 32 32" fill="none" xmlns="http://www.w3.org/2000/svg">
<path d="M3.07331 11.4633L15.065 5.46749C15.2339 5.38303 15.4328 5.38303 15.6017 5.46749L27.5934 11.4633C28.0356 11.6845 28.0356 12.3155 27.5934 12.5367L15.6017 18.5325C15.4328 18.617 15.2339 18.617 15.065 18.5325L3.07331 12.5367C2.63108 12.3155 2.63108 11.6845 3.07331 11.4633Z" stroke="#EA4C89" stroke-width="2" stroke-linecap="round" stroke-linejoin="round"/>
<path d="M30.0007 17.3333L30.0007 12.6667L27.334 11.3333" stroke="#EA4C89" stroke-width="1.5" stroke-linecap="round" stroke-linejoin="round"/>
<path d="M6 14V21.6376C6 22.4098 6.44459 23.1131 7.1422 23.4443L14.4755 26.9261C15.0184 27.1838 15.6483 27.1838 16.1911 26.9261L23.5245 23.4443C24.2221 23.1131 24.6667 22.4098 24.6667 21.6376V14" stroke="#EA4C89" stroke-width="1.5" stroke-linecap="round" stroke-linejoin="round"/>
</svg>
