<svg id="visual" viewBox="0 0 900 600" width="900" height="600" xmlns="http://www.w3.org/2000/svg" xmlns:xlink="http://www.w3.org/1999/xlink" version="1.1"><path d="M0 55L82 55L82 73L164 73L164 79L245 79L245 61L327 61L327 109L409 109L409 49L491 49L491 43L573 43L573 133L655 133L655 91L736 91L736 109L818 109L818 91L900 91L900 79L900 0L900 0L818 0L818 0L736 0L736 0L655 0L655 0L573 0L573 0L491 0L491 0L409 0L409 0L327 0L327 0L245 0L245 0L164 0L164 0L82 0L82 0L0 0Z" fill="#9900ff"></path><path d="M0 265L82 265L82 295L164 295L164 229L245 229L245 289L327 289L327 241L409 241L409 157L491 157L491 157L573 157L573 211L655 211L655 175L736 175L736 271L818 271L818 295L900 295L900 319L900 77L900 89L818 89L818 107L736 107L736 89L655 89L655 131L573 131L573 41L491 41L491 47L409 47L409 107L327 107L327 59L245 59L245 77L164 77L164 71L82 71L82 53L0 53Z" fill="#7014c3"></path><path d="M0 313L82 313L82 331L164 331L164 307L245 307L245 337L327 337L327 319L409 319L409 229L491 229L491 229L573 229L573 259L655 259L655 235L736 235L736 361L818 361L818 355L900 355L900 373L900 317L900 293L818 293L818 269L736 269L736 173L655 173L655 209L573 209L573 155L491 155L491 155L409 155L409 239L327 239L327 287L245 287L245 227L164 227L164 293L82 293L82 263L0 263Z" fill="#4b1589"></path><path d="M0 445L82 445L82 427L164 427L164 475L245 475L245 505L327 505L327 541L409 541L409 541L491 541L491 433L573 433L573 487L655 487L655 481L736 481L736 535L818 535L818 463L900 463L900 487L900 371L900 353L818 353L818 359L736 359L736 233L655 233L655 257L573 257L573 227L491 227L491 227L409 227L409 317L327 317L327 335L245 335L245 305L164 305L164 329L82 329L82 311L0 311Z" fill="#2c1052"></path><path d="M0 601L82 601L82 601L164 601L164 601L245 601L245 601L327 601L327 601L409 601L409 601L491 601L491 601L573 601L573 601L655 601L655 601L736 601L736 601L818 601L818 601L900 601L900 601L900 485L900 461L818 461L818 533L736 533L736 479L655 479L655 485L573 485L573 431L491 431L491 539L409 539L409 539L327 539L327 503L245 503L245 473L164 473L164 425L82 425L82 443L0 443Z" fill="#140021"></path></svg>